<svg xmlns="http://www.w3.org/2000/svg" width="330" height="330" viewBox="0 0 330 330" role="img" aria-labelledby="title desc">
  <title id="title">Hoan Quest preview</title>
  <desc id="desc">Static preview of Hoan's retro creature-catching README game.</desc>
  <rect width="330" height="330" rx="18" fill="#202124"/>
  <rect x="12" y="12" width="306" height="306" rx="14" fill="#4b5563" stroke="#111827" stroke-width="4"/>
  <rect x="24" y="42" width="252" height="196" fill="#d8f2b4" stroke="#111827" stroke-width="4"/>
  <g stroke="#8ba86c" stroke-width="1" opacity=".5">
    <path d="M52 42v196M80 42v196M108 42v196M136 42v196M164 42v196M192 42v196M220 42v196M248 42v196"/>
    <path d="M24 70h252M24 98h252M24 126h252M24 154h252M24 182h252M24 210h252"/>
  </g>
  <g fill="#2c5940">
    <rect x="24" y="42" width="252" height="28"/>
    <rect x="24" y="210" width="252" height="28"/>
    <rect x="24" y="42" width="28" height="196"/>
    <rect x="248" y="42" width="28" height="196"/>
    <rect x="80" y="98" width="28" height="28"/>
    <rect x="192" y="98" width="28" height="28"/>
    <rect x="80" y="154" width="28" height="28"/>
    <rect x="192" y="154" width="28" height="28"/>
  </g>
  <g stroke="#2c5940" stroke-width="2" stroke-linecap="round" fill="none">
    <path d="M118 161l5-10 5 10 5-9"/>
    <path d="M145 77l5-10 5 10 5-9"/>
    <path d="M145 217l5-10 5 10 5-9"/>
  </g>
  <g aria-label="Bytebud" role="img">
    <ellipse cx="178" cy="159" rx="9" ry="6" fill="#4f46e5" stroke="#292524" stroke-width="2"/>
    <circle cx="178" cy="151" r="8" fill="#8b5cf6" stroke="#292524" stroke-width="2"/>
    <rect x="174" y="149" width="3" height="3" fill="#ffffff"/>
    <rect x="181" y="149" width="3" height="3" fill="#ffffff"/>
    <path d="M174 156q4 4 8 0" fill="none" stroke="#292524" stroke-width="2"/>
  </g>
  <g aria-label="Player" role="img">
    <circle cx="66" cy="152" r="8" fill="#f7b267" stroke="#292524" stroke-width="2"/>
    <path d="M56 143h20v6H56z" fill="#e23d3d" stroke="#292524" stroke-width="2"/>
    <rect x="59" y="160" width="14" height="11" rx="2" fill="#3178c6" stroke="#292524" stroke-width="2"/>
    <rect x="63" y="151" width="3" height="3" fill="#292524"/>
    <rect x="69" y="151" width="3" height="3" fill="#292524"/>
  </g>
  <rect x="24" y="247" width="282" height="54" rx="4" fill="#f8fafc" stroke="#111827" stroke-width="4"/>
  <text x="38" y="269" fill="#111827" font-family="Consolas, monospace" font-size="13" font-weight="700">A shared pocket quest is waiting.</text>
  <text x="38" y="289" fill="#374151" font-family="Consolas, monospace" font-size="11">Deploy Vercel for live shared controls.</text>
  <text x="24" y="31" fill="#f8fafc" font-family="Consolas, monospace" font-size="14" font-weight="700">HOAN QUEST</text>
  <text x="204" y="31" fill="#d1d5db" font-family="Consolas, monospace" font-size="10">profile preview</text>
</svg>
